<svg xmlns="http://www.w3.org/2000/svg" width="22" height="22" viewBox="0 0 22 22">
  <defs>
    <style>
      .cls-1 {
        fill: #b5b3b5;
        fill-rule: evenodd;
      }
    </style>
  </defs>
  <path id="remove" class="cls-1" d="M451,819a11,11,0,1,1-11,11A11,11,0,0,1,451,819Zm1.314,11,0.1,0.1,2.9,2.9-0.124.125H454v1.189l-0.1.1-2.9-2.9-2.9,2.9-0.1-.1v-1.189h-1.189L446.686,833l2.9-2.9,0.05-.05,0.052-.051-0.1-.1-2.9-2.9,0.125-.125H448v-1.189l0.1-.1,2.9,2.9,2.9-2.9,0.1,0.1v1.189h1.189L455.313,827l-2.9,2.9Z" transform="translate(-440 -819)"/>
</svg>
