<?xml version="1.0" encoding="UTF-8" standalone="no"?>
<svg width="35px" height="15px" viewBox="0 0 35 15" version="1.1" xmlns="http://www.w3.org/2000/svg" xmlns:xlink="http://www.w3.org/1999/xlink" xmlns:sketch="http://www.bohemiancoding.com/sketch/ns">
    <!-- Generator: Sketch 3.2.2 (9983) - http://www.bohemiancoding.com/sketch -->
    <title>Slice 1</title>
    <desc>Created with Sketch.</desc>
    <defs></defs>
    <g id="Page-1" stroke="none" stroke-width="1" fill="none" fill-rule="evenodd" sketch:type="MSPage">
        <g id="Group" sketch:type="MSLayerGroup" transform="translate(-1.000000, -1.000000)">
            <path d="M5.014,1 C7.006,1.004 8.007,1.932 9,3.785 C9.993,1.931 10.994,1.004 12.985,1 C15.198,0.996 16.996,2.672 17,4.741 C17.006,8.489 13.003,12.245 9,16 C4.997,12.245 0.994,8.489 1,4.741 C1.003,2.672 2.801,0.996 5.014,1 L5.014,1 Z" id="Shape" opacity="0.3" fill="#222222" sketch:type="MSShapeGroup"></path>
            <path d="M24.014,1 C26.006,1.004 27.006,1.932 28,3.785 C28.993,1.931 29.994,1.004 31.985,1 C34.198,0.996 35.996,2.672 36,4.741 C36.006,8.489 32.003,12.245 28,16 C23.997,12.245 19.994,8.489 20,4.741 C20.003,2.672 21.801,0.996 24.014,1 L24.014,1 Z" id="Shape" fill="#EB1616" sketch:type="MSShapeGroup"></path>
        </g>
    </g>
</svg>