<svg width="35" height="15" xmlns="http://www.w3.org/2000/svg"><g fill="none" fill-rule="evenodd"><path d="M4.014 0C6.006.004 7.007.932 8 2.785 8.993.93 9.994.005 11.985 0c2.213-.004 4.01 1.672 4.015 3.74.006 3.75-3.997 7.505-8 11.26C3.997 11.245-.006 7.49 0 3.74.003 1.673 1.8-.003 4.014 0z" opacity=".3" fill="#222"/><path d="M23.014 0C25.006.004 26.006.932 27 2.785 27.993.93 28.994.005 30.985 0c2.213-.004 4.01 1.672 4.015 3.74.006 3.75-3.997 7.505-8 11.26-4.003-3.755-8.006-7.51-8-11.26.003-2.068 1.8-3.744 4.014-3.74z" fill="#EB1616"/></g></svg>