<svg width="142" height="23" xmlns="http://www.w3.org/2000/svg"><path d="M90 11c0-6.075 4.925-11 11-11 6.076 0 11 4.925 11 11s-4.924 11-11 11c-6.075 0-11-4.925-11-11zm15.46-6h-8.92C95.693 5 95 5.693 95 6.54v8.92c0 .846.693 1.54 1.54 1.54h8.92c.846 0 1.54-.694 1.54-1.54V6.54c0-.847-.694-1.54-1.54-1.54zm-.294 10.62H96.81a.478.478 0 0 1-.477-.477v-5.07h1.102c-.1.328-.154.673-.154 1.03 0 1.997 1.67 3.615 3.73 3.615s3.73-1.618 3.73-3.614c0-.358-.053-.703-.152-1.03h1.056v5.07a.48.48 0 0 1-.477.476zm-.07-6.914h-1.355a.542.542 0 0 1-.54-.54V6.873c0-.297.244-.54.54-.54h1.358c.297 0 .54.243.54.54v1.293c0 .297-.243.54-.54.54zm-4.085 4.603c-1.33 0-2.41-1.048-2.41-2.338s1.08-2.335 2.41-2.335c1.333 0 2.41 1.046 2.41 2.335 0 1.29-1.077 2.336-2.41 2.336zM71 22c-6.075 0-11-4.925-11-11S64.924 0 71 0s11 4.925 11 11-4.924 11-11 11zm6.47-14.55a4.885 4.885 0 0 1-1.415.392 2.5 2.5 0 0 0 1.083-1.38 4.892 4.892 0 0 1-1.565.605 2.444 2.444 0 0 0-1.798-.788c-1.36 0-2.463 1.115-2.463 2.494 0 .196.022.386.064.57a6.964 6.964 0 0 1-5.078-2.61 2.51 2.51 0 0 0-.333 1.256c0 .867.435 1.63 1.096 2.078a2.43 2.43 0 0 1-1.114-.312v.032c0 1.21.85 2.218 1.976 2.447a2.444 2.444 0 0 1-1.112.043 2.472 2.472 0 0 0 2.3 1.734 4.903 4.903 0 0 1-3.646 1.033 6.91 6.91 0 0 0 3.776 1.122c4.532 0 7.01-3.804 7.01-7.103a6.96 6.96 0 0 0-.008-.323 5 5 0 0 0 1.23-1.29zM41.007 22.015c-6.076 0-11-4.925-11-11 0-6.076 4.924-11 11-11 6.075 0 11 4.924 11 11 0 6.075-4.925 11-11 11zm4.387-13.458c0-1.014-.61-2.534-3.014-2.534h-4.86v9.945h4.236c3.638 0 3.95-2.124 3.95-2.973 0-.973-.3-1.932-1.507-2.384.406-.205 1.193-.63 1.193-2.054zm-3.326 5.7H39.57v-2.672h2.606c.747 0 1.48.342 1.48 1.205 0 1.015-.584 1.467-1.588 1.467zm-.095-4.344H39.57V7.736h2.348c.937 0 1.507.26 1.507 1.07 0 .793-.638 1.108-1.452 1.108zM11.007 22.016c-6.076 0-11-4.925-11-11 0-6.076 4.924-11 11-11 6.075 0 11 4.924 11 11 0 6.075-4.925 11-11 11zm4.985-11.072v-2.02h-1.916v-1.13c0-.532.405-.962.904-.962h1.012V5.007h-2.195c-1.334 0-2.178 1.025-2.178 2.444v1.475H9.99v2.02h1.626v6.045h2.456v-6.046h1.916zm115.094-3.757c.7 0 1.27.526 1.27 1.173s-.57 1.173-1.27 1.173c-.7 0-1.27-.526-1.27-1.173s.57-1.173 1.27-1.173zm3.05 1.49c.012-.104.018-.21.018-.317 0-1.562-1.376-2.833-3.068-2.833-1.693 0-3.07 1.27-3.07 2.833 0 1.562 1.377 2.833 3.07 2.833 1.576 0 2.878-1.102 3.05-2.515zm-13.89 2.34c0-6.076 4.853-11 10.84-11s10.84 4.924 10.84 11c0 6.074-4.853 11-10.84 11s-10.84-4.926-10.84-11zm12.08 2.487a6.02 6.02 0 0 0 1.783-.68c.42-.246.545-.758.28-1.146-.264-.388-.82-.505-1.24-.26a4.173 4.173 0 0 1-4.13 0c-.42-.245-.977-.128-1.24.26-.266.388-.14.9.28 1.145a6.03 6.03 0 0 0 1.783.68l-1.716 1.585a.786.786 0 0 0 0 1.174.937.937 0 0 0 .636.243c.23 0 .46-.08.636-.243l1.684-1.556 1.687 1.556a.95.95 0 0 0 1.27 0 .785.785 0 0 0 0-1.174l-1.714-1.584z" fill="#FFF" fill-rule="evenodd"/></svg>